<mxfile host="app.diagrams.net" modified="2021-03-10T06:05:51.272Z" agent="5.0 (Macintosh; Intel Mac OS X 10_13_6) AppleWebKit/537.36 (KHTML, like Gecko) Chrome/79.0.3945.117 Safari/537.36" etag="W3SiY40qVIHtBIQQFuo_" version="14.4.4" type="github">
  <diagram id="FwcFqP0C5W_5_Z98Vjde" name="Page-1">
    <mxGraphModel dx="1426" dy="826" grid="1" gridSize="10" guides="1" tooltips="1" connect="1" arrows="1" fold="1" page="1" pageScale="1" pageWidth="827" pageHeight="1169" math="0" shadow="0">
      <root>
        <mxCell id="0" />
        <mxCell id="1" parent="0" />
        <mxCell id="Cm3EA2zY6-B5ncBwFZGS-15" value="" style="rounded=0;whiteSpace=wrap;html=1;" vertex="1" parent="1">
          <mxGeometry x="350" y="10" width="120" height="60" as="geometry" />
        </mxCell>
        <mxCell id="Cm3EA2zY6-B5ncBwFZGS-16" value="用户" style="text;html=1;strokeColor=none;fillColor=none;align=center;verticalAlign=middle;whiteSpace=wrap;rounded=0;" vertex="1" parent="1">
          <mxGeometry x="390" y="30" width="40" height="20" as="geometry" />
        </mxCell>
        <mxCell id="Cm3EA2zY6-B5ncBwFZGS-17" value="" style="endArrow=classic;html=1;exitX=0.5;exitY=1;exitDx=0;exitDy=0;" edge="1" parent="1" source="Cm3EA2zY6-B5ncBwFZGS-15">
          <mxGeometry width="50" height="50" relative="1" as="geometry">
            <mxPoint x="385" y="200" as="sourcePoint" />
            <mxPoint x="410" y="120" as="targetPoint" />
          </mxGeometry>
        </mxCell>
        <mxCell id="Cm3EA2zY6-B5ncBwFZGS-18" value="" style="rounded=0;whiteSpace=wrap;html=1;" vertex="1" parent="1">
          <mxGeometry x="80" y="120" width="670" height="560" as="geometry" />
        </mxCell>
        <mxCell id="Cm3EA2zY6-B5ncBwFZGS-19" value="rpc请求" style="text;html=1;strokeColor=none;fillColor=none;align=center;verticalAlign=middle;whiteSpace=wrap;rounded=0;" vertex="1" parent="1">
          <mxGeometry x="410" y="80" width="56" height="20" as="geometry" />
        </mxCell>
        <mxCell id="Cm3EA2zY6-B5ncBwFZGS-20" value="" style="rounded=0;whiteSpace=wrap;html=1;" vertex="1" parent="1">
          <mxGeometry x="310" y="120" width="250" height="190" as="geometry" />
        </mxCell>
        <mxCell id="Cm3EA2zY6-B5ncBwFZGS-22" value="&lt;span style=&quot;color: rgb(57 , 58 , 52) ; font-family: &amp;#34;consolas&amp;#34; , &amp;#34;menlo&amp;#34; , &amp;#34;courier&amp;#34; , monospace ; font-size: 14px ; background-color: rgb(255 , 255 , 255)&quot;&gt;fill_url()&lt;br&gt;解析抓取请求将Pbpack包里的请求信息解析存到&lt;/span&gt;&lt;span style=&quot;font-family: &amp;#34;consolas&amp;#34; , &amp;#34;menlo&amp;#34; , &amp;#34;courier&amp;#34; , monospace ; font-size: 14px ; background-color: rgb(255 , 255 , 255)&quot;&gt;url_item&lt;/span&gt;&lt;span style=&quot;color: rgb(57 , 58 , 52) ; font-family: &amp;#34;consolas&amp;#34; , &amp;#34;menlo&amp;#34; , &amp;#34;courier&amp;#34; , monospace ; font-size: 14px ; background-color: rgb(255 , 255 , 255)&quot;&gt;&lt;br&gt;里&lt;br&gt;&lt;/span&gt;" style="text;html=1;strokeColor=none;fillColor=none;align=center;verticalAlign=middle;whiteSpace=wrap;rounded=0;" vertex="1" parent="1">
          <mxGeometry x="440" y="200" width="95" height="90" as="geometry" />
        </mxCell>
        <mxCell id="Cm3EA2zY6-B5ncBwFZGS-26" value="&lt;span style=&quot;color: rgb(57 , 58 , 52) ; font-family: &amp;#34;consolas&amp;#34; , &amp;#34;menlo&amp;#34; , &amp;#34;courier&amp;#34; , monospace ; font-size: 14px ; background-color: rgb(255 , 255 , 255)&quot;&gt;SimpleCrawl()&lt;/span&gt;" style="text;html=1;strokeColor=none;fillColor=none;align=center;verticalAlign=middle;whiteSpace=wrap;rounded=0;" vertex="1" parent="1">
          <mxGeometry x="350" y="130" width="40" height="20" as="geometry" />
        </mxCell>
        <mxCell id="Cm3EA2zY6-B5ncBwFZGS-29" value="&lt;span style=&quot;color: rgb(57 , 58 , 52) ; font-family: &amp;#34;consolas&amp;#34; , &amp;#34;menlo&amp;#34; , &amp;#34;courier&amp;#34; , monospace ; font-size: 14px ; background-color: rgb(255 , 255 , 255)&quot;&gt;rpc_process_request()&lt;/span&gt;" style="text;html=1;strokeColor=none;fillColor=none;align=center;verticalAlign=middle;whiteSpace=wrap;rounded=0;" vertex="1" parent="1">
          <mxGeometry x="418" y="150" width="40" height="20" as="geometry" />
        </mxCell>
        <mxCell id="Cm3EA2zY6-B5ncBwFZGS-34" value="&lt;span style=&quot;color: rgb(57 , 58 , 52) ; font-family: &amp;#34;consolas&amp;#34; , &amp;#34;menlo&amp;#34; , &amp;#34;courier&amp;#34; , monospace ; font-size: 14px ; background-color: rgb(255 , 255 , 255)&quot;&gt;request_processor()&lt;/span&gt;" style="text;html=1;strokeColor=none;fillColor=none;align=center;verticalAlign=middle;whiteSpace=wrap;rounded=0;" vertex="1" parent="1">
          <mxGeometry x="455" y="170" width="40" height="20" as="geometry" />
        </mxCell>
        <mxCell id="Cm3EA2zY6-B5ncBwFZGS-36" value="" style="endArrow=classic;html=1;exitX=0.5;exitY=1;exitDx=0;exitDy=0;" edge="1" parent="1" source="Cm3EA2zY6-B5ncBwFZGS-20">
          <mxGeometry width="50" height="50" relative="1" as="geometry">
            <mxPoint x="390" y="429" as="sourcePoint" />
            <mxPoint x="435" y="379" as="targetPoint" />
          </mxGeometry>
        </mxCell>
        <mxCell id="Cm3EA2zY6-B5ncBwFZGS-38" value="&lt;span class=&quot;token function&quot; style=&quot;box-sizing: border-box ; margin: 0px ; padding: 0px ; border: 0px ; font-stretch: inherit ; font-size: 14px ; line-height: inherit ; font-family: &amp;#34;consolas&amp;#34; , &amp;#34;menlo&amp;#34; , &amp;#34;courier&amp;#34; , monospace ; color: rgb(57 , 58 , 52) ; background-color: rgb(255 , 255 , 255)&quot;&gt;append_queue()&lt;/span&gt;" style="text;html=1;strokeColor=none;fillColor=none;align=center;verticalAlign=middle;whiteSpace=wrap;rounded=0;" vertex="1" parent="1">
          <mxGeometry x="480" y="330" width="40" height="20" as="geometry" />
        </mxCell>
      </root>
    </mxGraphModel>
  </diagram>
</mxfile>
